PathFileType	4	(X/Y/Z)	C:/Users/opensim2020/Desktop/walking_exp_matlab/subject01_walking04_straight_03.trc	
DataRate	CameraRate	NumFrames	NumMarkers	Units	OrigDataRate	OrigDataStartFrame	OrigNumFrames	
100.00	100.00	5	43	mm	100.00	2233	211	
Frame#	Time	LFHD			RFHD			LBHD			RBHD			C7			T10			CLAV			STRN			RBAK			LSHO			LUPA			LELB			LFRM			LWRA			LWRB			LFIN			RSHO			RUPA			RELB			RFRM			RWRA			RWRB			RFIN			LASI			RASI			LPSI			RPSI			LTHI			LKNE			LTIB			LANK			LHEE			LTOE			RTHI			RKNE			RTIB			RANK			RHEE			RTOE			*39			*40			*41			*42			
		X1	Y1	Z1	X2	Y2	Z2	X3	Y3	Z3	X4	Y4	Z4	X5	Y5	Z5	X6	Y6	Z6	X7	Y7	Z7	X8	Y8	Z8	X9	Y9	Z9	X10	Y10	Z10	X11	Y11	Z11	X12	Y12	Z12	X13	Y13	Z13	X14	Y14	Z14	X15	Y15	Z15	X16	Y16	Z16	X17	Y17	Z17	X18	Y18	Z18	X19	Y19	Z19	X20	Y20	Z20	X21	Y21	Z21	X22	Y22	Z22	X23	Y23	Z23	X24	Y24	Z24	X25	Y25	Z25	X26	Y26	Z26	X27	Y27	Z27	X28	Y28	Z28	X29	Y29	Z29	X30	Y30	Z30	X31	Y31	Z31	X32	Y32	Z32	X33	Y33	Z33	X34	Y34	Z34	X35	Y35	Z35	X36	Y36	Z36	X37	Y37	Z37	X38	Y38	Z38	X39	Y39	Z39	X40	Y40	Z40	X41	Y41	Z41	X42	Y42	Z42	X43	Y43	Z43	

132	1.310	-1097.67615	183.04257	1657.43530	-982.87164	193.96240	1661.64966	-1093.11316	66.01608	1612.39771	-971.94080	74.36092	1615.84692	-1053.84412	23.23444	1418.94788	-1039.45801	-7.94879	1125.39136	-1047.92932	169.51488	1353.76245	-1055.10999	214.50078	1201.20203	-976.10400	-28.72519	1222.82520	-1210.51672	112.78295	1382.18359	-1302.05505	124.66728	1202.86694	-1316.62695	160.88101	1054.33276	-1330.97949	260.33533	990.11108	-1298.34253	389.79056	951.17767	-1327.45435	354.39536	912.55762	-1330.42822	435.66580	891.77496	-897.01648	101.27435	1380.42517	-803.91687	14.45065	1189.17114	-801.35962	-4.24770	1067.76917	-766.66650	-6.93571	949.32251	-775.83655	44.68851	816.02216	-741.40375	-0.74601	828.88580	-740.35382	15.72540	743.77808	-1152.79431	161.06328	919.08801	-935.73273	178.06163	925.79065	-1081.42322	-20.76105	933.83594	-937.30713	-8.18468	933.10596	-1193.55811	61.75392	594.04913	-1175.66882	18.69966	463.28540	-1177.85535	-88.62434	304.73914	-1118.18921	-182.84877	105.96037	-1065.04138	-233.40480	94.36052	-1119.49548	-52.31719	33.09060	-871.48816	200.98708	600.21124	-904.76318	255.93526	455.57217	-896.26605	257.74469	279.87585	-942.55365	307.85211	76.86215	-995.29822	273.14697	29.43098	-942.64575	452.73230	74.67914	-1006.28766	182.33865	1695.98413	-3101.91333	1973.17017	1023.29730	-3140.78491	2012.52295	1022.01111			 
133	1.320	-1095.51477	192.47273	1657.07617	-980.79999	203.72778	1661.30530	-1090.69104	75.42265	1611.95642	-969.39844	84.18221	1615.43762	-1051.18628	32.52660	1418.42224	-1037.56787	3.12330	1124.30444	-1045.75073	179.50191	1353.43103	-1053.39526	225.12183	1201.22388	-974.06079	-17.98223	1221.41553	-1208.17273	122.17400	1382.06042	-1300.01831	133.59587	1202.76294	-1315.05103	169.17206	1054.16772	-1329.85339	268.50995	989.79919	-1297.10254	397.92291	950.27844	-1326.50940	362.41263	911.92523	-1329.46924	443.64441	890.95856	-894.58301	111.27486	1379.57898	-801.98688	25.14561	1187.77429	-799.70929	6.75431	1066.35815	-765.32458	4.13774	947.92047	-774.92328	55.74414	814.60748	-740.44757	10.32381	827.40326	-739.66595	26.78639	742.21411	-1151.94177	172.65836	918.54077	-934.85034	189.91212	925.21088	-1080.25183	-9.17528	933.29712	-935.90717	3.81192	932.05182	-1193.08582	73.14607	593.43622	-1175.68420	29.95851	462.58496	-1178.07422	-80.54136	306.24875	-1119.46655	-180.09326	109.70387	-1066.46533	-230.77994	99.87711	-1119.76575	-51.96206	33.10066	-872.34650	212.83095	599.62708	-904.46692	266.24271	454.06113	-897.92487	264.65341	278.38449	-943.51782	311.57663	76.55612	-996.31635	274.78278	30.65219	-942.97852	456.50897	66.72885	-1004.16559	191.99402	1695.59180	-3101.84888	1973.13843	1023.44385	-3140.55835	2012.56335	1021.93481			 
134	1.330	-1093.37769	202.06502	1657.46887	-978.54059	213.56737	1661.56824	-1088.03979	85.10335	1611.89197	-966.93311	94.10562	1615.39404	-1048.46606	41.97542	1418.19275	-1035.76392	14.31855	1123.66089	-1043.55225	189.46704	1353.49841	-1051.64978	235.63014	1201.72754	-972.06226	-7.18047	1220.28772	-1205.86938	131.52438	1382.20215	-1298.01221	142.49628	1202.77979	-1313.50476	177.23457	1053.90405	-1328.42737	276.28583	989.16516	-1295.97229	405.62161	949.08698	-1325.53699	369.89230	911.06274	-1328.54175	451.03494	889.75354	-892.07050	121.39656	1378.95764	-799.92932	36.02921	1186.41101	-797.93933	18.00520	1064.97693	-763.91809	15.55200	946.41107	-774.10425	67.14529	813.12964	-739.59100	21.76341	825.82959	-738.81207	38.33261	740.80408	-1150.78137	184.66277	918.25317	-933.91833	201.71904	924.95483	-1079.01465	2.40539	932.97986	-934.30121	15.70613	931.21161	-1192.50439	85.25297	592.73944	-1175.50659	42.12001	461.76321	-1178.54431	-71.91227	307.94141	-1121.04358	-176.52618	114.20650	-1068.21313	-227.70061	106.42961	-1120.05078	-51.61002	33.13197	-873.25934	224.32202	600.31940	-904.11133	276.58597	453.56372	-899.36938	272.14221	278.26379	-943.28723	315.68381	76.43066	-995.77881	276.59268	32.07745	-943.24976	460.08224	60.85767	-1002.16315	201.53452	1695.50842	-3101.79272	1973.15137	1023.26099	-3140.75537	2012.55347	1021.90906			 
135	1.340	-1090.98743	211.70792	1658.17395	-976.21661	223.58086	1662.23303	-1085.35388	94.83083	1612.52771	-964.32434	104.17570	1615.93665	-1045.78979	51.87571	1418.53687	-1034.19275	25.49496	1123.72925	-1041.35608	199.34563	1354.19043	-1049.86536	246.08464	1202.63562	-970.08295	3.45846	1219.87769	-1203.67358	140.84299	1382.70544	-1295.92053	151.24016	1203.00244	-1311.66504	185.02094	1053.82971	-1327.06335	283.70535	988.57526	-1294.84021	412.81354	947.66962	-1324.52625	376.87079	909.96790	-1327.57080	457.86288	888.17328	-889.55182	131.53670	1378.59338	-797.78705	47.16964	1185.23376	-796.24060	29.62068	1063.64819	-762.51910	27.33464	944.96844	-773.35968	78.93793	811.80280	-738.61432	33.75266	824.46729	-738.04132	50.32058	739.57928	-1149.61719	196.34740	918.14490	-933.01587	213.46317	924.85846	-1077.89502	13.96890	932.81152	-932.61890	27.53257	931.23230	-1191.79980	98.21994	592.16248	-1175.19031	55.55287	461.12244	-1178.88428	-62.08216	309.95432	-1122.61975	-172.25235	119.35130	-1069.88757	-223.56836	113.64270	-1120.19263	-51.17898	33.16497	-872.75909	234.88557	601.19629	-903.95227	287.44104	454.85977	-898.69836	280.89499	279.60175	-942.55640	319.41388	76.24559	-995.18951	277.95139	33.69223	-944.19562	462.88174	55.43465	-999.55444	211.03595	1696.25146	-3101.82935	1973.23865	1023.25269	-3140.55688	2012.63989	1022.05841			 
136	1.350	-1088.62537	221.59879	1659.00854	-973.87738	233.96378	1663.02039	-1082.78186	104.67799	1613.76013	-961.64093	114.44691	1616.95447	-1043.16772	62.11001	1419.35339	-1032.68115	36.46260	1124.06604	-1039.20056	209.12828	1355.23157	-1047.96680	256.72897	1203.85876	-967.96301	13.94943	1220.05200	-1201.65833	150.24750	1383.50732	-1293.75867	159.77904	1203.52686	-1309.55725	192.49960	1054.01587	-1325.48169	290.68188	987.96423	-1293.73816	419.46808	946.01318	-1323.37952	383.20367	908.67120	-1326.62097	463.89734	886.23523	-887.15936	141.79590	1378.62793	-795.64667	58.73466	1184.32361	-794.45520	41.57559	1062.58691	-761.10266	39.39614	943.74146	-772.64008	90.97382	810.69318	-737.45673	46.16918	823.07446	-737.22070	62.75258	738.52234	-1148.47229	207.91394	918.39941	-932.12744	225.25603	925.31287	-1077.02612	25.62642	932.91608	-931.58966	39.22393	931.75128	-1191.15515	112.04645	591.84766	-1175.39990	69.97308	460.55817	-1179.37048	-51.23026	312.36847	-1124.01514	-167.25702	124.93242	-1071.07715	-218.20511	121.78492	-1120.35840	-50.63293	33.17399	-871.54755	245.12534	601.95251	-903.24738	298.23029	456.19315	-897.07196	289.81720	280.90579	-941.93866	321.88120	76.23703	-994.36438	279.57184	34.59022	-944.98303	465.04660	49.90318	-997.14795	221.10075	1697.18445	-3102.03784	1973.39124	1022.91229	-3140.68140	2012.57800	1022.14960			 
